<?xml version="1.0" encoding="UTF-8"?>
<svg id="Capa_2" data-name="Capa 2" xmlns="http://www.w3.org/2000/svg" viewBox="0 0 1874.62 205.24">
  <defs>
    <style>
      .cls-1 {
        fill: #97d22a;
      }
    </style>
  </defs>
  <g id="Capa_1-2" data-name="Capa 1">
    <g>
      <g>
        <path class="cls-1" d="M123.09,201.53l-23.55-28.22c-6.52,1.63-13.19,2.44-20,2.44-14.52,0-27.85-3.41-39.99-10.22-12.15-6.81-21.77-16.25-28.88-28.33C3.56,125.13,0,111.47,0,96.21s3.56-28.7,10.67-40.77c7.11-12.07,16.74-21.51,28.88-28.33,12.14-6.81,25.48-10.22,39.99-10.22s28.03,3.41,40.11,10.22c12.07,6.82,21.62,16.26,28.66,28.33,7.03,12.08,10.55,25.66,10.55,40.77,0,13.78-2.93,26.33-8.78,37.66-5.85,11.33-13.81,20.55-23.89,27.66l35.55,39.99h-38.66ZM38,123.54c4,7.85,9.59,13.89,16.77,18.11,7.18,4.22,15.44,6.33,24.77,6.33s17.55-2.11,24.66-6.33c7.11-4.22,12.66-10.26,16.66-18.11,4-7.85,6-16.96,6-27.33s-2-19.44-6-27.22c-4-7.78-9.55-13.74-16.66-17.89-7.11-4.15-15.33-6.22-24.66-6.22s-17.59,2.08-24.77,6.22c-7.19,4.15-12.78,10.11-16.77,17.89-4,7.78-6,16.85-6,27.22s2,19.48,6,27.33Z"/>
        <path class="cls-1" d="M298.62,51.1v123.09h-31.33v-15.55c-4,5.33-9.22,9.52-15.66,12.55-6.44,3.03-13.44,4.55-21,4.55-9.63,0-18.15-2.03-25.55-6.11-7.41-4.07-13.22-10.07-17.44-18-4.22-7.92-6.33-17.37-6.33-28.33V51.1h31.11v67.77c0,9.78,2.44,17.3,7.33,22.55,4.89,5.26,11.55,7.89,20,7.89s15.33-2.63,20.22-7.89c4.89-5.26,7.33-12.78,7.33-22.55V51.1h31.33Z"/>
        <path class="cls-1" d="M331.39,31.22c-3.63-3.48-5.44-7.81-5.44-13s1.81-9.52,5.44-13c3.63-3.48,8.18-5.22,13.66-5.22s10.03,1.74,13.66,5.22c3.63,3.48,5.44,7.82,5.44,13s-1.82,9.52-5.44,13c-3.63,3.48-8.19,5.22-13.66,5.22s-10.04-1.74-13.66-5.22ZM360.39,51.1v123.09h-31.11V51.1h31.11Z"/>
        <path class="cls-1" d="M494.81,63.21c9.03,9.26,13.55,22.18,13.55,38.77v72.21h-31.11v-67.99c0-9.78-2.44-17.29-7.33-22.55-4.89-5.26-11.55-7.89-20-7.89s-15.37,2.63-20.33,7.89c-4.96,5.26-7.44,12.78-7.44,22.55v67.99h-31.11V51.1h31.11v15.33c4.15-5.33,9.44-9.52,15.89-12.55,6.44-3.03,13.52-4.55,21.22-4.55,14.66,0,26.51,4.63,35.55,13.89Z"/>
        <path class="cls-1" d="M537.69,79.21c5.18-9.55,12.37-16.96,21.55-22.22,9.18-5.26,19.7-7.89,31.55-7.89,15.26,0,27.88,3.82,37.88,11.44,10,7.63,16.7,18.33,20.11,32.11h-33.55c-1.78-5.33-4.78-9.52-9-12.55-4.22-3.03-9.44-4.55-15.66-4.55-8.89,0-15.92,3.22-21.11,9.67-5.19,6.44-7.78,15.59-7.78,27.44s2.59,20.78,7.78,27.22c5.18,6.44,12.22,9.67,21.11,9.67,12.59,0,20.81-5.63,24.66-16.89h33.55c-3.41,13.33-10.15,23.92-20.22,31.77-10.08,7.85-22.66,11.78-37.77,11.78-11.85,0-22.37-2.63-31.55-7.89-9.19-5.26-16.37-12.66-21.55-22.22-5.19-9.55-7.78-20.7-7.78-33.44s2.59-23.88,7.78-33.44Z"/>
        <path class="cls-1" d="M785.21,121.98h-89.99c.74,8.89,3.85,15.85,9.33,20.89,5.48,5.04,12.22,7.55,20.22,7.55,11.55,0,19.77-4.96,24.66-14.89h33.55c-3.55,11.85-10.37,21.59-20.44,29.22-10.07,7.63-22.44,11.44-37.11,11.44-11.85,0-22.48-2.63-31.88-7.89-9.41-5.26-16.74-12.7-22-22.33-5.26-9.63-7.89-20.74-7.89-33.33s2.59-23.92,7.78-33.55c5.18-9.63,12.44-17.03,21.77-22.22,9.33-5.18,20.07-7.78,32.22-7.78s22.18,2.52,31.44,7.55c9.26,5.04,16.44,12.19,21.55,21.44,5.11,9.26,7.66,19.89,7.66,31.88,0,4.44-.3,8.44-.89,12ZM753.88,101.1c-.15-8-3.04-14.4-8.67-19.22-5.63-4.81-12.52-7.22-20.66-7.22-7.7,0-14.19,2.33-19.44,7-5.26,4.67-8.48,11.15-9.66,19.44h58.44Z"/>
        <path class="cls-1" d="M912.52,63.21c9.03,9.26,13.55,22.18,13.55,38.77v72.21h-31.11v-67.99c0-9.78-2.44-17.29-7.33-22.55-4.89-5.26-11.55-7.89-20-7.89s-15.37,2.63-20.33,7.89c-4.96,5.26-7.44,12.78-7.44,22.55v67.99h-31.11V51.1h31.11v15.33c4.15-5.33,9.44-9.52,15.89-12.55,6.44-3.03,13.52-4.55,21.22-4.55,14.66,0,26.51,4.63,35.55,13.89Z"/>
        <path class="cls-1" d="M955.07,79.1c4.96-9.63,11.7-17.03,20.22-22.22,8.52-5.18,18.03-7.78,28.55-7.78,9.18,0,17.22,1.85,24.11,5.55,6.89,3.7,12.4,8.37,16.55,14v-17.55h31.33v123.09h-31.33v-18c-4,5.78-9.52,10.55-16.55,14.33-7.04,3.78-15.15,5.67-24.33,5.67-10.37,0-19.81-2.67-28.33-8-8.52-5.33-15.26-12.85-20.22-22.55-4.96-9.7-7.44-20.85-7.44-33.44s2.48-23.48,7.44-33.11ZM1040.06,93.21c-2.96-5.41-6.96-9.55-12-12.44-5.04-2.89-10.44-4.33-16.22-4.33s-11.11,1.41-16,4.22c-4.89,2.81-8.85,6.93-11.89,12.33-3.04,5.41-4.55,11.81-4.55,19.22s1.52,13.89,4.55,19.44c3.03,5.55,7.03,9.81,12,12.77,4.96,2.97,10.26,4.44,15.89,4.44s11.18-1.44,16.22-4.33c5.03-2.89,9.03-7.03,12-12.44,2.96-5.41,4.44-11.89,4.44-19.44s-1.48-14.03-4.44-19.44Z"/>
        <path d="M1211.81,19.11v25.11h-41.33v129.98h-31.11V44.22h-41.33v-25.11h113.76Z"/>
        <path d="M1257.14,168.31c-9.48-5.26-16.92-12.7-22.33-22.33-5.41-9.63-8.11-20.74-8.11-33.33s2.78-23.7,8.33-33.33c5.55-9.63,13.14-17.07,22.77-22.33,9.63-5.26,20.37-7.89,32.22-7.89s22.59,2.63,32.22,7.89c9.63,5.26,17.22,12.7,22.77,22.33,5.55,9.63,8.33,20.74,8.33,33.33s-2.85,23.7-8.55,33.33c-5.7,9.63-13.41,17.07-23.11,22.33-9.7,5.26-20.55,7.89-32.55,7.89s-22.52-2.63-32-7.89ZM1305.02,144.98c4.96-2.74,8.92-6.85,11.89-12.33,2.96-5.48,4.44-12.14,4.44-20,0-11.7-3.08-20.7-9.22-27-6.15-6.29-13.66-9.44-22.55-9.44s-16.33,3.15-22.33,9.44c-6,6.3-9,15.3-9,27s2.92,20.7,8.78,27c5.85,6.3,13.22,9.44,22.11,9.44,5.63,0,10.92-1.37,15.89-4.11Z"/>
        <path d="M1484.21,65.77c-3.55-6.52-8.44-11.48-14.66-14.89-6.22-3.41-13.48-5.11-21.77-5.11-9.19,0-17.33,2.08-24.44,6.22-7.11,4.15-12.66,10.08-16.66,17.78-4,7.7-6,16.59-6,26.66s2.03,19.41,6.11,27.11c4.07,7.7,9.74,13.63,17,17.78,7.26,4.15,15.7,6.22,25.33,6.22,11.85,0,21.55-3.15,29.11-9.44,7.55-6.29,12.52-15.07,14.89-26.33h-53.33v-23.77h83.99v27.11c-2.08,10.81-6.52,20.81-13.33,30-6.82,9.19-15.59,16.55-26.33,22.11-10.74,5.55-22.77,8.33-36.11,8.33-14.96,0-28.48-3.37-40.55-10.11-12.07-6.74-21.55-16.11-28.44-28.11-6.89-12-10.33-25.62-10.33-40.88s3.44-28.92,10.33-40.99c6.89-12.07,16.37-21.48,28.44-28.22,12.07-6.74,25.51-10.11,40.33-10.11,17.48,0,32.66,4.26,45.55,12.78,12.89,8.52,21.78,20.48,26.66,35.88h-35.77Z"/>
        <path d="M1569.53,168.31c-9.48-5.26-16.92-12.7-22.33-22.33-5.41-9.63-8.11-20.74-8.11-33.33s2.78-23.7,8.33-33.33c5.55-9.63,13.14-17.07,22.77-22.33,9.63-5.26,20.37-7.89,32.22-7.89s22.59,2.63,32.22,7.89c9.63,5.26,17.22,12.7,22.77,22.33,5.55,9.63,8.33,20.74,8.33,33.33s-2.85,23.7-8.55,33.33c-5.7,9.63-13.41,17.07-23.11,22.33-9.7,5.26-20.55,7.89-32.55,7.89s-22.52-2.63-32-7.89ZM1617.41,144.98c4.96-2.74,8.92-6.85,11.89-12.33,2.96-5.48,4.44-12.14,4.44-20,0-11.7-3.08-20.7-9.22-27-6.15-6.29-13.66-9.44-22.55-9.44s-16.33,3.15-22.33,9.44c-6,6.3-9,15.3-9,27s2.92,20.7,8.78,27c5.85,6.3,13.22,9.44,22.11,9.44,5.63,0,10.92-1.37,15.89-4.11Z"/>
      </g>
      <g>
        <path class="cls-1" d="M1748.87,205.24c-4.61,0-9.2-1.57-13.06-4.71-7.49-6.07-9.81-16.04-5.79-24.8l7.43-16.16c14.52-31.6,15.45-68.24,2.55-100.54l-10.45-26.15c-3.52-8.81-.79-18.57,6.78-24.28,7.58-5.71,17.7-5.65,25.21.16l105.02,81.26c5.18,4.01,8.12,10.07,8.06,16.63-.07,6.55-3.12,12.56-8.38,16.46l-104.97,77.97c-3.75,2.78-8.08,4.17-12.4,4.17ZM1757.35,36.47l5.39,13.49c15.38,38.5,14.27,82.18-3.04,119.85l-1.36,2.97,89.37-66.38-90.35-69.92ZM1746.56,28.12s0,0,0,0h0Z"/>
        <path class="cls-1" d="M1694.34,193.29c-1.67,0-3.37-.34-4.99-1.07-6.17-2.76-8.93-10-6.17-16.17l7.27-16.24c14.21-31.74,14.78-68.39,1.56-100.56l-10.7-26.05c-2.57-6.25.42-13.4,6.67-15.97,6.25-2.57,13.41.42,15.97,6.67l10.7,26.05c15.76,38.34,15.08,82.03-1.86,119.87l-7.27,16.24c-2.04,4.55-6.5,7.24-11.18,7.24Z"/>
      </g>
    </g>
  </g>
</svg>