<?xml version="1.0" encoding="UTF-8"?>
<svg id="Capa_2" data-name="Capa 2" xmlns="http://www.w3.org/2000/svg" viewBox="0 0 707.75 77.49">
  <g id="Layer_1" data-name="Layer 1">
    <g>
      <g>
        <path d="M46.47,76.09l-8.89-10.65c-2.46.61-4.98.92-7.55.92-5.48,0-10.51-1.29-15.1-3.86-4.59-2.57-8.22-6.14-10.91-10.7-2.68-4.56-4.03-9.72-4.03-15.48s1.34-10.83,4.03-15.39c2.68-4.56,6.32-8.12,10.91-10.7,4.58-2.57,9.62-3.86,15.1-3.86s10.58,1.29,15.14,3.86c4.56,2.57,8.16,6.14,10.82,10.7,2.66,4.56,3.98,9.69,3.98,15.39,0,5.2-1.11,9.94-3.31,14.22-2.21,4.28-5.22,7.76-9.02,10.44l13.42,15.1h-14.6ZM14.34,46.64c1.51,2.96,3.62,5.24,6.33,6.84,2.71,1.59,5.83,2.39,9.35,2.39s6.63-.8,9.31-2.39c2.68-1.59,4.78-3.87,6.29-6.84,1.51-2.96,2.26-6.4,2.26-10.32s-.76-7.34-2.26-10.28c-1.51-2.94-3.61-5.19-6.29-6.75-2.68-1.57-5.79-2.35-9.31-2.35s-6.64.78-9.35,2.35c-2.71,1.57-4.82,3.82-6.33,6.75-1.51,2.94-2.27,6.36-2.27,10.28s.76,7.35,2.27,10.32Z"/>
        <path d="M112.74,19.29v46.47h-11.83v-5.87c-1.51,2.01-3.48,3.59-5.91,4.74-2.43,1.15-5.08,1.72-7.93,1.72-3.64,0-6.85-.77-9.65-2.31-2.8-1.54-4.99-3.8-6.59-6.79-1.59-2.99-2.39-6.56-2.39-10.7v-27.26h11.74v25.59c0,3.69.92,6.53,2.77,8.51,1.85,1.99,4.36,2.98,7.55,2.98s5.79-.99,7.63-2.98c1.85-1.98,2.77-4.82,2.77-8.51v-25.59h11.83Z"/>
        <path d="M125.12,11.79c-1.37-1.31-2.06-2.95-2.06-4.91s.68-3.59,2.06-4.91c1.37-1.31,3.09-1.97,5.16-1.97s3.79.66,5.16,1.97c1.37,1.31,2.06,2.95,2.06,4.91s-.69,3.59-2.06,4.91c-1.37,1.31-3.09,1.97-5.16,1.97s-3.79-.66-5.16-1.97ZM136.06,19.29v46.47h-11.74V19.29h11.74Z"/>
        <path d="M186.81,23.87c3.41,3.5,5.12,8.38,5.12,14.64v27.26h-11.74v-25.67c0-3.69-.92-6.53-2.77-8.51-1.85-1.98-4.36-2.98-7.55-2.98s-5.8.99-7.68,2.98c-1.87,1.99-2.81,4.82-2.81,8.51v25.67h-11.74V19.29h11.74v5.79c1.57-2.01,3.57-3.59,6-4.74,2.43-1.15,5.1-1.72,8.01-1.72,5.54,0,10.01,1.75,13.42,5.24Z"/>
        <path d="M203,29.91c1.96-3.61,4.67-6.4,8.14-8.39,3.47-1.98,7.44-2.98,11.91-2.98,5.76,0,10.53,1.44,14.3,4.32,3.77,2.88,6.3,6.92,7.59,12.12h-12.67c-.67-2.01-1.8-3.59-3.4-4.74-1.59-1.15-3.57-1.72-5.91-1.72-3.36,0-6.01,1.22-7.97,3.65-1.96,2.43-2.94,5.89-2.94,10.36s.98,7.84,2.94,10.28c1.96,2.43,4.61,3.65,7.97,3.65,4.75,0,7.86-2.12,9.31-6.38h12.67c-1.29,5.03-3.83,9.03-7.63,12-3.8,2.96-8.56,4.45-14.26,4.45-4.47,0-8.44-.99-11.91-2.98-3.47-1.98-6.18-4.78-8.14-8.39-1.96-3.61-2.94-7.81-2.94-12.63s.98-9.02,2.94-12.62Z"/>
        <path d="M296.45,46.05h-33.97c.28,3.36,1.45,5.98,3.52,7.89,2.07,1.9,4.61,2.85,7.63,2.85,4.36,0,7.47-1.87,9.31-5.62h12.67c-1.34,4.47-3.92,8.15-7.72,11.03-3.8,2.88-8.47,4.32-14.01,4.32-4.47,0-8.49-.99-12.04-2.98-3.55-1.98-6.32-4.79-8.3-8.43-1.99-3.63-2.98-7.83-2.98-12.58s.98-9.03,2.94-12.67c1.96-3.63,4.7-6.43,8.22-8.39,3.52-1.96,7.58-2.94,12.16-2.94s8.37.95,11.87,2.85c3.49,1.9,6.21,4.6,8.14,8.09,1.93,3.5,2.89,7.51,2.89,12.04,0,1.68-.11,3.19-.34,4.53ZM284.62,38.17c-.06-3.02-1.15-5.44-3.27-7.26-2.13-1.82-4.73-2.73-7.8-2.73-2.91,0-5.36.88-7.34,2.64-1.99,1.76-3.2,4.21-3.65,7.34h22.06Z"/>
        <path d="M344.52,23.87c3.41,3.5,5.12,8.38,5.12,14.64v27.26h-11.74v-25.67c0-3.69-.92-6.53-2.77-8.51-1.85-1.98-4.36-2.98-7.55-2.98s-5.8.99-7.68,2.98c-1.87,1.99-2.81,4.82-2.81,8.51v25.67h-11.74V19.29h11.74v5.79c1.57-2.01,3.57-3.59,6-4.74,2.43-1.15,5.1-1.72,8.01-1.72,5.54,0,10.01,1.75,13.42,5.24Z"/>
        <path d="M360.58,29.86c1.87-3.63,4.42-6.43,7.63-8.39,3.21-1.96,6.81-2.94,10.78-2.94,3.47,0,6.5.7,9.1,2.1,2.6,1.4,4.68,3.16,6.25,5.28v-6.63h11.83v46.47h-11.83v-6.79c-1.51,2.18-3.59,3.98-6.25,5.41-2.66,1.43-5.72,2.14-9.19,2.14-3.91,0-7.48-1.01-10.7-3.02-3.22-2.01-5.76-4.85-7.63-8.51-1.87-3.66-2.81-7.87-2.81-12.62s.94-8.86,2.81-12.5ZM392.67,35.19c-1.12-2.04-2.63-3.61-4.53-4.7-1.9-1.09-3.94-1.64-6.12-1.64s-4.19.53-6.04,1.59c-1.85,1.06-3.34,2.61-4.49,4.66-1.15,2.04-1.72,4.46-1.72,7.26s.57,5.24,1.72,7.34c1.15,2.1,2.66,3.71,4.53,4.82,1.87,1.12,3.87,1.68,6,1.68s4.22-.55,6.12-1.64c1.9-1.09,3.41-2.66,4.53-4.7,1.12-2.04,1.68-4.49,1.68-7.34s-.56-5.3-1.68-7.34Z"/>
        <path d="M457.51,7.21v9.48h-15.6v49.07h-11.74V16.69h-15.6V7.21h42.95Z"/>
        <path d="M474.62,63.54c-3.58-1.98-6.39-4.79-8.43-8.43-2.04-3.63-3.06-7.83-3.06-12.58s1.05-8.95,3.15-12.58c2.1-3.63,4.96-6.44,8.6-8.43,3.63-1.98,7.69-2.98,12.16-2.98s8.53.99,12.16,2.98c3.63,1.99,6.5,4.8,8.6,8.43,2.1,3.64,3.15,7.83,3.15,12.58s-1.08,8.95-3.23,12.58c-2.15,3.64-5.06,6.45-8.72,8.43-3.66,1.99-7.76,2.98-12.29,2.98s-8.5-.99-12.08-2.98ZM492.7,54.74c1.87-1.03,3.37-2.59,4.49-4.66,1.12-2.07,1.68-4.58,1.68-7.55,0-4.42-1.16-7.81-3.48-10.19-2.32-2.38-5.16-3.57-8.51-3.57s-6.17,1.19-8.43,3.57c-2.26,2.38-3.4,5.78-3.4,10.19s1.1,7.82,3.31,10.19c2.21,2.38,4.99,3.56,8.35,3.56,2.12,0,4.12-.52,6-1.55Z"/>
        <path d="M560.35,24.83c-1.34-2.46-3.19-4.33-5.54-5.62-2.35-1.29-5.09-1.93-8.22-1.93-3.47,0-6.54.78-9.23,2.35-2.68,1.57-4.78,3.8-6.29,6.71-1.51,2.91-2.27,6.26-2.27,10.07s.77,7.33,2.31,10.23c1.54,2.91,3.68,5.15,6.42,6.71,2.74,1.57,5.93,2.35,9.56,2.35,4.47,0,8.14-1.19,10.99-3.57,2.85-2.38,4.73-5.69,5.62-9.94h-20.13v-8.98h31.71v10.23c-.78,4.08-2.46,7.86-5.03,11.32-2.57,3.47-5.89,6.25-9.94,8.35-4.06,2.1-8.6,3.15-13.63,3.15-5.65,0-10.75-1.27-15.31-3.82-4.56-2.54-8.14-6.08-10.74-10.61-2.6-4.53-3.9-9.67-3.9-15.44s1.3-10.92,3.9-15.48c2.6-4.56,6.18-8.11,10.74-10.65,4.56-2.54,9.63-3.82,15.23-3.82,6.6,0,12.33,1.61,17.2,4.82,4.87,3.22,8.22,7.73,10.07,13.55h-13.51Z"/>
        <path d="M592.57,63.54c-3.58-1.98-6.39-4.79-8.43-8.43-2.04-3.63-3.06-7.83-3.06-12.58s1.05-8.95,3.15-12.58c2.1-3.63,4.96-6.44,8.6-8.43,3.63-1.98,7.69-2.98,12.16-2.98s8.53.99,12.16,2.98c3.63,1.99,6.5,4.8,8.6,8.43,2.1,3.64,3.15,7.83,3.15,12.58s-1.08,8.95-3.23,12.58c-2.15,3.64-5.06,6.45-8.72,8.43-3.66,1.99-7.76,2.98-12.29,2.98s-8.5-.99-12.08-2.98ZM610.64,54.74c1.87-1.03,3.37-2.59,4.49-4.66,1.12-2.07,1.68-4.58,1.68-7.55,0-4.42-1.16-7.81-3.48-10.19-2.32-2.38-5.16-3.57-8.51-3.57s-6.17,1.19-8.43,3.57c-2.26,2.38-3.4,5.78-3.4,10.19s1.1,7.82,3.31,10.19c2.21,2.38,4.99,3.56,8.35,3.56,2.12,0,4.12-.52,6-1.55Z"/>
      </g>
      <g>
        <path d="M660.28,77.49c-1.74,0-3.47-.59-4.93-1.78-2.83-2.29-3.71-6.06-2.19-9.36l2.8-6.1c5.48-11.93,5.83-25.77.96-37.96l-3.94-9.87c-1.33-3.33-.3-7.01,2.56-9.17,2.86-2.16,6.68-2.13,9.52.06l39.65,30.68c1.96,1.51,3.07,3.8,3.04,6.28-.02,2.47-1.18,4.74-3.16,6.22l-39.63,29.44c-1.41,1.05-3.05,1.57-4.68,1.57ZM663.48,13.77l2.03,5.09c5.81,14.53,5.39,31.03-1.15,45.25l-.51,1.12,33.74-25.06-34.11-26.4ZM659.4,10.62s0,0,0,0h0Z"/>
        <path d="M639.69,72.98c-.63,0-1.27-.13-1.89-.4-2.33-1.04-3.37-3.78-2.33-6.11l2.74-6.13c5.37-11.98,5.58-25.82.59-37.97l-4.04-9.83c-.97-2.36.16-5.06,2.52-6.03,2.36-.97,5.06.16,6.03,2.52l4.04,9.83c5.95,14.48,5.69,30.97-.7,45.26l-2.74,6.13c-.77,1.72-2.45,2.73-4.22,2.73Z"/>
      </g>
    </g>
  </g>
</svg>