<svg width="361" height="361" viewBox="0 0 361 361" fill="none" xmlns="http://www.w3.org/2000/svg">
<path d="M180.5 361C280.187 361 361 280.187 361 180.5C361 80.8126 280.187 0 180.5 0C80.8126 0 0 80.8126 0 180.5C0 280.187 80.8126 361 180.5 361Z" fill="#97D22A"/>
<path d="M263.295 149.072C263.295 194.691 226.321 258.024 180.702 258.024C135.082 258.024 98.109 194.691 98.109 149.072C98.109 103.452 135.082 66.4788 180.702 66.4788C226.321 66.4788 263.295 103.452 263.295 149.072Z" stroke="black" stroke-width="11" stroke-miterlimit="10" stroke-linecap="round"/>
<path d="M175.22 313.22H186.185C188.748 313.22 190.825 311.143 190.825 308.581V308.564C190.825 306.001 188.748 303.924 186.185 303.924H175.22C172.658 303.924 170.581 306.001 170.581 308.564V308.581C170.581 311.143 172.658 313.22 175.22 313.22Z" fill="black"/>
<path d="M166.45 296.421H194.936C197.498 296.421 199.575 294.344 199.575 291.782V291.764C199.575 289.202 197.498 287.125 194.936 287.125H166.45C163.888 287.125 161.811 289.202 161.811 291.764V291.782C161.811 294.344 163.888 296.421 166.45 296.421Z" fill="black"/>
<path d="M166.45 279.621H194.936C197.498 279.621 199.575 277.544 199.575 274.982V274.964C199.575 272.402 197.498 270.325 194.936 270.325H166.45C163.888 270.325 161.811 272.402 161.811 274.964V274.982C161.811 277.544 163.888 279.621 166.45 279.621Z" fill="black"/>
<path d="M180.702 258.024V168.402" stroke="black" stroke-width="11" stroke-miterlimit="10" stroke-linecap="round"/>
</svg>
