<svg width="426" height="426" viewBox="0 0 426 426" fill="none" xmlns="http://www.w3.org/2000/svg">
<path d="M213 426C330.637 426 426 330.637 426 213C426 95.3633 330.637 0 213 0C95.3633 0 0 95.3633 0 213C0 330.637 95.3633 426 213 426Z" fill="#97D22A"/>
<path d="M227.226 94.8157L256.047 153.089C258.357 157.762 262.81 160.98 267.971 161.749L332.418 171.094C345.403 172.984 350.606 188.913 341.2 198.071L294.566 243.427C290.841 247.061 289.134 252.294 290.008 257.424L301.016 321.47C303.243 334.388 289.654 344.231 278.022 338.147L220.379 307.909C215.76 305.48 210.245 305.48 205.626 307.909L147.983 338.147C136.351 344.252 122.783 334.388 124.989 321.47L135.997 257.424C136.871 252.294 135.164 247.061 131.439 243.427L84.8053 198.071C75.3994 188.933 80.581 172.984 93.5869 171.094L158.034 161.749C163.195 161.001 167.648 157.762 169.958 153.089L198.779 94.8157C204.585 83.0614 221.378 83.0614 227.205 94.8157H227.226Z" stroke="black" stroke-width="13" stroke-miterlimit="10"/>
</svg>
