<svg width="286" height="154" viewBox="0 0 286 154" fill="none" xmlns="http://www.w3.org/2000/svg">
<path d="M274.646 0.876099H57.3263C51.1903 0.876099 46.216 5.85035 46.216 11.9864V12.0094C46.216 18.1455 51.1903 23.1197 57.3263 23.1197H274.646C280.782 23.1197 285.756 18.1455 285.756 12.0094V11.9864C285.756 5.85035 280.782 0.876099 274.646 0.876099Z" fill="#97D22A"/>
<path d="M11.9862 23.9724C18.606 23.9724 23.9724 18.606 23.9724 11.9862C23.9724 5.36642 18.606 0 11.9862 0C5.36641 0 0 5.36642 0 11.9862C0 18.606 5.36641 23.9724 11.9862 23.9724Z" fill="#97D22A"/>
<path d="M274.646 65.8782H57.3263C51.1903 65.8782 46.216 70.8524 46.216 76.9885V77.0115C46.216 83.1476 51.1903 88.1218 57.3263 88.1218H274.646C280.782 88.1218 285.756 83.1476 285.756 77.0115V76.9885C285.756 70.8524 280.782 65.8782 274.646 65.8782Z" fill="#97D22A"/>
<path d="M11.9862 88.9979C18.606 88.9979 23.9724 83.6315 23.9724 77.0117C23.9724 70.3919 18.606 65.0255 11.9862 65.0255C5.36641 65.0255 0 70.3919 0 77.0117C0 83.6315 5.36641 88.9979 11.9862 88.9979Z" fill="#97D22A"/>
<path d="M274.646 130.903H57.3263C51.1903 130.903 46.216 135.877 46.216 142.013V142.037C46.216 148.173 51.1903 153.147 57.3263 153.147H274.646C280.782 153.147 285.756 148.173 285.756 142.037V142.013C285.756 135.877 280.782 130.903 274.646 130.903Z" fill="#97D22A"/>
<path d="M11.9862 154C18.606 154 23.9724 148.634 23.9724 142.014C23.9724 135.394 18.606 130.028 11.9862 130.028C5.36641 130.028 0 135.394 0 142.014C0 148.634 5.36641 154 11.9862 154Z" fill="#97D22A"/>
</svg>
