<svg width="258" height="379" viewBox="0 0 258 379" fill="none" xmlns="http://www.w3.org/2000/svg">
<path d="M129 184C57.7726 184 0 246.123 0 322.732C0 328.669 0.365431 334.552 1.02987 340.297C34.2184 364.266 79.3003 379 129 379C178.7 379 223.782 364.266 256.97 340.297C257.635 334.552 258 328.669 258 322.732C258 246.095 200.261 184 129 184Z" fill="#97D22A"/>
<path d="M128.5 146C169.093 146 202 113.317 202 73C202 32.6832 169.093 0 128.5 0C87.9071 0 55 32.6832 55 73C55 113.317 87.9071 146 128.5 146Z" fill="#97D22A"/>
</svg>
