<svg width="178" height="339" viewBox="0 0 178 339" fill="none" xmlns="http://www.w3.org/2000/svg">
<path d="M177.9 149.508L173.63 183.98C172.908 189.738 168.058 194.07 162.305 194.07H106.776V338.196C100.92 338.728 94.9865 339 88.9886 339C75.5738 339 62.4816 337.651 49.8279 335.083V194.07H7.12012C3.19889 194.07 0 190.841 0 186.885V143.75C0 139.794 3.19889 136.565 7.12012 136.565H49.8279V71.8749C49.8279 32.1764 81.7008 0 121.029 0H170.857C174.778 0 177.977 3.22931 177.977 7.1849V50.3202C177.977 54.2758 174.778 57.5051 170.857 57.5051H135.256C119.533 57.5051 106.789 70.3705 106.789 86.2577V136.578H166.588C173.45 136.578 178.751 142.647 177.913 149.521L177.9 149.508Z" fill="black"/>
</svg>
