<svg width="396" height="396" viewBox="0 0 396 396" fill="none" xmlns="http://www.w3.org/2000/svg">
<path d="M197.703 395.405C306.891 395.405 395.405 306.891 395.405 197.703C395.405 88.5145 306.891 0 197.703 0C88.5145 0 0 88.5145 0 197.703C0 306.891 88.5145 395.405 197.703 395.405Z" fill="#97D22A"/>
<path d="M197.703 315.309C262.655 315.309 315.309 262.655 315.309 197.703C315.309 132.751 262.655 80.0964 197.703 80.0964C132.751 80.0964 80.0964 132.751 80.0964 197.703C80.0964 262.655 132.751 315.309 197.703 315.309Z" stroke="white" stroke-width="12" stroke-miterlimit="10"/>
<path d="M197.702 283.529C245.103 283.529 283.528 245.103 283.528 197.703C283.528 150.303 245.103 111.878 197.702 111.878C150.302 111.878 111.877 150.303 111.877 197.703C111.877 245.103 150.302 283.529 197.702 283.529Z" stroke="white" stroke-width="12" stroke-miterlimit="10"/>
<path d="M197.703 251.728C227.541 251.728 251.729 227.54 251.729 197.703C251.729 167.865 227.541 143.677 197.703 143.677C167.866 143.677 143.678 167.865 143.678 197.703C143.678 227.54 167.866 251.728 197.703 251.728Z" stroke="white" stroke-width="12" stroke-miterlimit="10"/>
</svg>
