<svg width="268" height="271" viewBox="0 0 268 271" fill="none" xmlns="http://www.w3.org/2000/svg">
<path d="M208 75C215.732 75 222 68.732 222 61C222 53.268 215.732 47 208 47C200.268 47 194 53.268 194 61C194 68.732 200.268 75 208 75Z" fill="black"/>
<path d="M203.311 0H64.6888C28.9691 0 0 29.2934 0 65.4129V205.587C0 241.707 28.9691 271 64.6888 271H203.311C239.031 271 268 241.707 268 205.587V65.4129C268 29.2934 239.031 0 203.311 0ZM244.894 200.906C244.894 226.702 224.193 247.635 198.682 247.635H69.3048C43.7944 247.635 23.093 226.702 23.093 200.906V70.0806C23.093 44.2847 43.7944 23.3515 69.3048 23.3515H198.682C224.193 23.3515 244.894 44.2847 244.894 70.0806V200.906Z" fill="black"/>
<path d="M134 66C95.9156 66 65 97.1396 65 135.5C65 173.86 95.9156 205 134 205C172.084 205 203 173.86 203 135.5C203 97.1396 172.084 66 134 66ZM134 181.842C108.653 181.842 87.9915 161.031 87.9915 135.5C87.9915 109.969 108.653 89.1581 134 89.1581C159.347 89.1581 180.008 109.969 180.008 135.5C180.008 161.031 159.347 181.842 134 181.842Z" fill="black"/>
</svg>
